<?xml version="1.0" encoding="UTF-8" standalone="no"?>
<!-- Created with Inkscape (http://www.inkscape.org/) -->

<svg
   version="1.1"
   id="svg9"
   width="158.65451"
   height="188.86154"
   viewBox="0 0 158.65451 188.86154"
   sodipodi:docname="AIC-lite.svg"
   inkscape:version="1.1.2 (0a00cf5339, 2022-02-04, custom)"
   xmlns:inkscape="http://www.inkscape.org/namespaces/inkscape"
   xmlns:sodipodi="http://sodipodi.sourceforge.net/DTD/sodipodi-0.dtd"
   xmlns:xlink="http://www.w3.org/1999/xlink"
   xmlns="http://www.w3.org/2000/svg"
   xmlns:svg="http://www.w3.org/2000/svg">
  <defs
     id="defs13">
    <linearGradient
       inkscape:collect="always"
       id="linearGradient42173">
      <stop
         style="stop-color:#e40200;stop-opacity:1"
         offset="0"
         id="stop42169" />
      <stop
         style="stop-color:#ded700;stop-opacity:1"
         offset="1"
         id="stop42171" />
    </linearGradient>
    <linearGradient
       inkscape:collect="always"
       xlink:href="#linearGradient42173"
       id="linearGradient42241"
       gradientUnits="userSpaceOnUse"
       x1="137.44244"
       y1="98.655136"
       x2="63.961422"
       y2="7.0397792" />
    <linearGradient
       inkscape:collect="always"
       xlink:href="#linearGradient42173"
       id="linearGradient50988"
       gradientUnits="userSpaceOnUse"
       x1="137.44244"
       y1="98.655136"
       x2="63.961422"
       y2="7.0397792" />
    <linearGradient
       inkscape:collect="always"
       xlink:href="#linearGradient42173"
       id="linearGradient50990"
       gradientUnits="userSpaceOnUse"
       x1="137.44244"
       y1="98.655136"
       x2="63.961422"
       y2="7.0397792" />
    <linearGradient
       inkscape:collect="always"
       xlink:href="#linearGradient42173"
       id="linearGradient50992"
       gradientUnits="userSpaceOnUse"
       x1="137.44244"
       y1="98.655136"
       x2="63.961422"
       y2="7.0397792" />
  </defs>
  <sodipodi:namedview
     id="namedview11"
     pagecolor="#505050"
     bordercolor="#ffffff"
     borderopacity="1"
     inkscape:pageshadow="0"
     inkscape:pageopacity="1"
     inkscape:pagecheckerboard="1"
     showgrid="false"
     showguides="true"
     inkscape:guide-bbox="true"
     inkscape:snap-grids="false"
     inkscape:snap-to-guides="false"
     inkscape:snap-page="false"
     fit-margin-top="0"
     fit-margin-left="0"
     fit-margin-right="0"
     fit-margin-bottom="0"
     inkscape:zoom="2.8284271"
     inkscape:cx="36.062446"
     inkscape:cy="108.36412"
     inkscape:window-width="1920"
     inkscape:window-height="1013"
     inkscape:window-x="-9"
     inkscape:window-y="-9"
     inkscape:window-maximized="1"
     inkscape:current-layer="layer1"
     inkscape:lockguides="false">
    <inkscape:grid
       type="xygrid"
       id="grid522"
       originx="-66.672754"
       originy="-0.64491298" />
  </sodipodi:namedview>
  <g
     inkscape:groupmode="layer"
     id="layer1"
     inkscape:label="Linework"
     style="display:inline"
     transform="translate(-66.672754,-0.644913)">
    <g
       id="g941">
      <g
         id="g51039"
         transform="translate(36,-25)">
        <g
           id="g47263"
           style="fill:#00ffff;fill-opacity:1;stroke:#00dcff;stroke-width:1.2;stroke-miterlimit:4;stroke-dasharray:none;stroke-opacity:1">
          <path
             style="fill:#00ffff;fill-opacity:1;stroke:#00dcff;stroke-width:1.2;stroke-linecap:butt;stroke-linejoin:miter;stroke-miterlimit:4;stroke-dasharray:none;stroke-opacity:1"
             d="M 104.10872,183.04362 C 74.241464,166.21366 38.442955,157.56371 39.111884,137.67383 c -10.028925,-2.25311 -9.309454,-12.7758 -4.112635,-16.61496 3.903494,-2.88371 3.652958,-8.77049 3.61893,-12.30052 -0.0771,-7.99809 14.932488,-12.696203 19.409634,-4.36518 1.849923,-13.036475 7.534864,-22.928236 -8.675727,-50.774333 l 15.929204,-15.929204 44.71873,-0.0032"
             id="path10730"
             sodipodi:nodetypes="ccsscccc" />
          <path
             style="fill:#00ffff;fill-opacity:1;stroke:#00dcff;stroke-width:1.2;stroke-linecap:butt;stroke-linejoin:miter;stroke-miterlimit:4;stroke-dasharray:none;stroke-opacity:1"
             d="m 115.8913,183.04364 c 29.86726,-16.82996 65.66577,-25.47991 64.99684,-45.36979 10.02893,-2.25311 9.30945,-12.7758 4.11264,-16.61496 -3.9035,-2.88371 -3.65296,-8.77049 -3.61893,-12.30052 0.0771,-7.99809 -14.93249,-12.696203 -19.40964,-4.36518 -1.84992,-13.036475 -7.53486,-22.928236 8.67573,-50.774333 l -15.92921,-15.929204 -44.71871,-0.0032"
             id="path21678"
             sodipodi:nodetypes="ccsscccc" />
        </g>
        <rect
           style="fill:#00ffff;fill-opacity:1;stroke:none;stroke-width:0.466681;stroke-miterlimit:4;stroke-dasharray:none;stroke-opacity:1"
           id="rect49113"
           width="74.988144"
           height="4.8207173"
           x="74.525917"
           y="38.309471" />
      </g>
      <rect
         style="fill:none;fill-opacity:1;stroke:none;stroke-width:0.5;stroke-miterlimit:4;stroke-dasharray:none;stroke-opacity:0.25"
         id="rect21908"
         width="88.890648"
         height="111.07775"
         x="101.28129"
         y="12.689632" />
      <g
         id="g45394"
         style="fill:#00dcff;fill-opacity:1;stroke:none"
         transform="translate(36,-25)">
        <path
           style="fill:#00dcff;fill-opacity:1;stroke:none;stroke-width:0.5;stroke-linecap:butt;stroke-linejoin:miter;stroke-miterlimit:4;stroke-dasharray:none;stroke-opacity:0.25"
           d="M 110,43.091946 66.777341,43.043226 55.915967,54.005169 c 7.145294,14.690454 13.739512,29.701534 6.436369,52.798351 -6.746641,33.46 9.92504,31.32372 39.422764,44.95402"
           id="path14644"
           sodipodi:nodetypes="ccccc" />
        <path
           style="fill:#00dcff;fill-opacity:1;stroke:none;stroke-width:0.5;stroke-linecap:butt;stroke-linejoin:miter;stroke-miterlimit:4;stroke-dasharray:none;stroke-opacity:0.25"
           d="m 110.00002,43.091966 43.22266,-0.04872 10.86138,10.961943 c -7.1453,14.690454 -13.73952,29.701534 -6.43637,52.798351 6.74664,33.46 -9.92504,31.32372 -39.42277,44.95402"
           id="path21684"
           sodipodi:nodetypes="ccccc" />
      </g>
      <g
         id="g53312">
        <g
           id="g51274">
          <path
             style="fill:#00dcff;fill-opacity:1;stroke:none;stroke-width:0.5;stroke-linecap:butt;stroke-linejoin:miter;stroke-miterlimit:4;stroke-dasharray:none;stroke-opacity:0.898039"
             d="m 75.680784,108.40708 c -3.848958,-1.6343 -5.321108,-5.38878 -1.42225,-10.77354 l 4.977876,-7.71571 5.546776,2.66671 c -2.987743,5.4518 -8.5201,9.77253 -9.102402,15.82254 z"
             id="path13434"
             sodipodi:nodetypes="ccccc" />
          <path
             style="fill:#00dcff;fill-opacity:1;stroke:none;stroke-width:0.5;stroke-linecap:butt;stroke-linejoin:miter;stroke-miterlimit:4;stroke-dasharray:none;stroke-opacity:0.898039"
             d="m 83.870503,85.92682 0.100569,3.01705 1.490223,1.10625 c 0.386291,-2.42706 0.04452,-4.18795 -1.590792,-4.1233 z"
             id="path16013"
             sodipodi:nodetypes="cccc" />
          <path
             style="fill:#00dcff;fill-opacity:1;stroke:none;stroke-width:0.5;stroke-linecap:butt;stroke-linejoin:miter;stroke-miterlimit:4;stroke-dasharray:none;stroke-opacity:0.25"
             d="m 139.83675,153.00586 c -15.0159,-7.24367 -28.82912,-13.49131 -45.708281,-24.23695 -6.372682,-4.60515 -21.909567,-13.50782 -11.313933,-27.80713 3.115762,-4.21635 9.862143,-13.95231 3.428996,-17.7056 -2.415873,-1.20589 -3.976857,1.44322 -4.683572,3.7266 -1.881976,-2.34986 -1.648979,-10.01361 6.282991,-6.73807 3.249468,1.7661 4.705163,6.18932 3.469605,11.26365 -5.476353,25.46308 28.435674,32.25562 47.036504,41.53827"
             id="path17124"
             sodipodi:nodetypes="cccccccc" />
          <path
             style="fill:#00dcff;fill-opacity:1;stroke:none;stroke-width:0.5;stroke-linecap:butt;stroke-linejoin:miter;stroke-miterlimit:4;stroke-dasharray:none;stroke-opacity:0.898039"
             d="m 216.31924,108.4071 c 3.84896,-1.6343 5.32111,-5.38878 1.42225,-10.77354 l -4.97788,-7.71571 -5.54677,2.66671 c 2.98774,5.4518 8.5201,9.77253 9.1024,15.82254 z"
             id="path21682"
             sodipodi:nodetypes="ccccc" />
          <path
             style="fill:#00dcff;fill-opacity:1;stroke:none;stroke-width:0.5;stroke-linecap:butt;stroke-linejoin:miter;stroke-miterlimit:4;stroke-dasharray:none;stroke-opacity:0.898039"
             d="m 208.12952,85.92684 -0.10057,3.01705 -1.49022,1.10625 c -0.38629,-2.42706 -0.0445,-4.18795 1.59079,-4.1233 z"
             id="path21686"
             sodipodi:nodetypes="cccc" />
          <path
             style="fill:#00dcff;fill-opacity:1;stroke:none;stroke-width:0.5;stroke-linecap:butt;stroke-linejoin:miter;stroke-miterlimit:4;stroke-dasharray:none;stroke-opacity:0.25"
             d="m 152.16327,153.00588 c 15.01591,-7.24367 28.82912,-13.49131 45.70828,-24.23695 6.37269,-4.60515 21.90957,-13.50782 11.31394,-27.80713 -3.11576,-4.21635 -9.86215,-13.95231 -3.429,-17.7056 2.41587,-1.20589 3.97686,1.44322 4.68357,3.7266 1.88198,-2.34986 1.64898,-10.01361 -6.28299,-6.73807 -3.24947,1.7661 -4.70516,6.18932 -3.4696,11.26365 5.47635,25.46308 -28.43568,32.25562 -47.03651,41.53827"
             id="path21688"
             sodipodi:nodetypes="cccccccc" />
        </g>
        <ellipse
           style="fill:#00ffff;fill-opacity:1;stroke:none;stroke-width:0;stroke-miterlimit:4;stroke-dasharray:none;stroke-opacity:1"
           id="path13319"
           cx="90.898857"
           cy="117.29614"
           rx="3.4134007"
           ry="3.2000632" />
        <ellipse
           style="fill:#00ffff;fill-opacity:1;stroke:none;stroke-width:0;stroke-miterlimit:4;stroke-dasharray:none;stroke-opacity:1"
           id="ellipse21680"
           cx="-201.10117"
           cy="117.29616"
           rx="3.4134007"
           ry="3.2000632"
           transform="scale(-1,1)" />
      </g>
      <rect
         style="fill:#00dcff;fill-opacity:1;stroke:none;stroke-width:0.361793;stroke-miterlimit:4;stroke-dasharray:none;stroke-opacity:1"
         id="rect49539"
         width="44.59198"
         height="97.494247"
         x="121.69245"
         y="18.043224" />
      <g
         id="g37628"
         style="fill:url(#linearGradient42241);fill-opacity:1;stroke:none"
         transform="translate(36,-25)">
        <path
           style="fill:url(#linearGradient50988);fill-opacity:1;stroke:none;stroke-width:0.5;stroke-linecap:butt;stroke-linejoin:miter;stroke-miterlimit:4;stroke-dasharray:none;stroke-opacity:0.25"
           d="m 120.4808,101.37283 c 3.95436,-5.484882 16.91919,-24.836721 -5.33011,-35.400035 -28.835186,-13.881477 -12.48693,-28.8068 -3.31876,-40.327882 -3.57856,12.359658 -10.0702,17.868867 -1.52827,25.560395 2.59491,2.336575 7.56672,4.736387 13.69704,8.12998 16.46031,9.993714 16.16339,21.890108 12.34374,29.35184 -3.70176,7.231446 -12.5621,11.421242 -15.86364,12.685702 z"
           id="path25776"
           sodipodi:nodetypes="cccscsc" />
        <path
           style="display:inline;fill:url(#linearGradient50990);fill-opacity:1;stroke:none;stroke-width:0.385824;stroke-linecap:butt;stroke-linejoin:miter;stroke-miterlimit:4;stroke-dasharray:none;stroke-opacity:0.25"
           d="M 112.30037,101.47105 C 113.82704,94.705576 114.91474,79.442186 102.07258,74.064878 80.971194,63.862241 88.222356,51.112416 94.345697,45.693842 c -2.012479,10.536184 1.068323,13.640446 2.83435,15.430939 2.615245,2.651477 6.683473,5.455838 12.457173,8.857406 12.0724,5.748207 13.93389,16.661297 10.20957,23.337256 -2.9155,5.226129 -4.4602,5.247522 -7.54642,8.151607 z"
           id="path25776-2"
           sodipodi:nodetypes="cccscsc" />
        <path
           style="display:inline;fill:url(#linearGradient50992);fill-opacity:1;stroke:none;stroke-width:0.290044;stroke-linecap:butt;stroke-linejoin:miter;stroke-miterlimit:4;stroke-dasharray:none;stroke-opacity:0.25"
           d="M 101.54807,101.96232 C 103.71063,97.891001 103.48425,86.866141 95.291043,83.56495 86.1153,80.186486 81.276161,74.603384 81.127866,70.666172 c -0.132476,-3.517221 1.192965,-6.349805 2.874567,-9.72781 1.478946,5.994592 4.181383,9.142773 8.237154,13.065542 1.462123,1.414175 3.723598,3.317025 7.392157,5.225283 3.425926,1.557061 6.466096,4.364532 6.936396,5.438991 0.99646,2.276551 1.31572,6.9193 0.2996,10.261369 -1.36751,4.497782 -3.34394,6.321743 -5.31967,7.032773 z"
           id="path25776-4"
           sodipodi:nodetypes="ccscscssc" />
      </g>
      <g
         id="g50033"
         transform="translate(36,-25)">
        <path
           style="fill:#ffffff;fill-opacity:1;stroke:#00dcff;stroke-width:1.2;stroke-linecap:butt;stroke-linejoin:miter;stroke-miterlimit:4;stroke-dasharray:none;stroke-opacity:1"
           d="m 110,213.90645 c -3.92517,-0.008 -8.30567,-4.12809 -4.18458,-9.95575 l -5.97344,-77.37043 c 3.55012,1.84657 7.68639,1.90464 10.15802,1.83116"
           id="path2575"
           sodipodi:nodetypes="cccc" />
        <path
           style="fill:#ffffff;fill-opacity:1;stroke:#00dcff;stroke-width:1.2;stroke-linecap:butt;stroke-linejoin:miter;stroke-miterlimit:4;stroke-dasharray:none;stroke-opacity:1"
           d="m 110,213.90645 c 3.92517,-0.008 8.30567,-4.12809 4.18458,-9.95575 l 5.97344,-77.37043 c -3.55012,1.84657 -7.68639,1.90464 -10.15802,1.83116"
           id="path5064"
           sodipodi:nodetypes="cccc" />
        <rect
           style="fill:#ffffff;fill-opacity:1;stroke:none;stroke-width:0.352908;stroke-miterlimit:4;stroke-dasharray:none;stroke-opacity:1"
           id="rect49727"
           width="3.2268817"
           height="83.961716"
           x="108.36411"
           y="129.04698" />
      </g>
      <g
         id="g50020"
         transform="translate(36,-25)">
        <path
           style="display:inline;fill:#ffffff;fill-opacity:1;stroke:none;stroke-width:0.5;stroke-linecap:butt;stroke-linejoin:miter;stroke-miterlimit:4;stroke-dasharray:none;stroke-opacity:1"
           d="m 110,105.19443 -28.992247,-0.10058 0.05028,4.82728 L 110,109.87085"
           id="path7890"
           sodipodi:nodetypes="cccc" />
        <path
           style="display:inline;fill:#ffffff;fill-opacity:1;stroke:none;stroke-width:0.5;stroke-linecap:butt;stroke-linejoin:miter;stroke-miterlimit:4;stroke-dasharray:none;stroke-opacity:1"
           d="m 110.00002,105.19445 28.99225,-0.10058 -0.0503,4.82728 L 110,109.87085"
           id="path10317"
           sodipodi:nodetypes="cccc" />
        <rect
           style="fill:#ffffff;fill-opacity:1;stroke:none;stroke-width:1.20575;stroke-miterlimit:4;stroke-dasharray:none;stroke-opacity:1"
           id="rect49913"
           width="22.45064"
           height="4.6403885"
           x="99.481087"
           y="105.18214" />
      </g>
      <rect
         style="fill:none;fill-opacity:1;stroke:none;stroke-width:0.0645156;stroke-miterlimit:4;stroke-dasharray:none;stroke-opacity:1"
         id="rect50479"
         width="3.163898"
         height="10.076272"
         x="142.06601"
         y="88.844193" />
      <g
         id="g50890"
         transform="translate(36,-25)">
        <path
           style="fill:#ffffff;fill-opacity:1;stroke:none;stroke-width:0.5;stroke-linecap:butt;stroke-linejoin:miter;stroke-miterlimit:4;stroke-dasharray:none;stroke-opacity:1"
           d="m 110,123.98466 c -7.26467,0.11191 -14.172853,-0.71288 -20.96713,-10.48909 L 110,113.42446"
           id="path5783"
           sodipodi:nodetypes="ccc" />
        <path
           style="fill:#ffffff;fill-opacity:1;stroke:none;stroke-width:0.5;stroke-linecap:butt;stroke-linejoin:miter;stroke-miterlimit:4;stroke-dasharray:none;stroke-opacity:1"
           d="m 110,123.98465 c 7.26467,0.11191 14.17286,-0.71288 20.96713,-10.48909 L 110,113.42446"
           id="path6872"
           sodipodi:nodetypes="ccc" />
        <rect
           style="fill:#ffffff;fill-opacity:1;stroke:none;stroke-width:0.102224;stroke-miterlimit:4;stroke-dasharray:none;stroke-opacity:1"
           id="rect50725"
           width="2.6697361"
           height="10.529396"
           x="108.61119"
           y="113.42814" />
      </g>
    </g>
  </g>
</svg>
