<?xml version="1.0" encoding="utf-8"?>
<!-- Generator: Adobe Illustrator 24.3.0, SVG Export Plug-In . SVG Version: 6.00 Build 0)  -->
<svg version="1.1"
	 id="svg9" inkscape:version="1.1.2 (0a00cf5339, 2022-02-04, custom)" sodipodi:docname="AIC-lite.svg" xmlns:inkscape="http://www.inkscape.org/namespaces/inkscape" xmlns:sodipodi="http://sodipodi.sourceforge.net/DTD/sodipodi-0.dtd" xmlns:svg="http://www.w3.org/2000/svg"
	 xmlns="http://www.w3.org/2000/svg" xmlns:xlink="http://www.w3.org/1999/xlink" x="0px" y="0px" viewBox="0 0 486 204"
	 style="enable-background:new 0 0 486 204;" xml:space="preserve">
<style type="text/css">
	.st0{fill:#00FFFF;stroke:#00DCFF;stroke-width:1.2;}
	.st1{fill:#00FFFF;}
	.st2{fill:none;}
	.st3{fill:#00DCFF;}
	.st4{fill:url(#path25776_1_);}
	.st5{fill:url(#path25776-2_1_);}
	.st6{fill:url(#path25776-4_1_);}
	.st7{fill:#FFFFFF;stroke:#00DCFF;stroke-width:1.2;}
	.st8{fill:#FFFFFF;}
	.st9{fill:#FFFFFF;stroke:#000000;stroke-miterlimit:10;}
	.st10{font-family:'Rockwell';}
	.st11{font-size:43px;}
	.st12{fill:#FFFFFF;stroke:#000000;stroke-width:1.5;stroke-miterlimit:10;}
</style>
<sodipodi:namedview  bordercolor="#ffffff" borderopacity="1" fit-margin-bottom="0" fit-margin-left="0" fit-margin-right="0" fit-margin-top="0" id="namedview11" inkscape:current-layer="layer1" inkscape:cx="36.062446" inkscape:cy="108.36412" inkscape:guide-bbox="true" inkscape:lockguides="false" inkscape:pagecheckerboard="1" inkscape:pageopacity="1" inkscape:pageshadow="0" inkscape:snap-grids="false" inkscape:snap-page="false" inkscape:snap-to-guides="false" inkscape:window-height="1013" inkscape:window-maximized="1" inkscape:window-width="1920" inkscape:window-x="-9" inkscape:window-y="-9" inkscape:zoom="2.8284271" pagecolor="#505050" showgrid="false" showguides="true">
	<inkscape:grid  id="grid522" originx="-66.672754" originy="-0.64491298" type="xygrid"></inkscape:grid>
</sodipodi:namedview>
<g id="layer1" transform="translate(-66.672754,-0.644913)" inkscape:groupmode="layer" inkscape:label="Linework">
	<g id="g941">
		<g id="g51039" transform="translate(36,-25)">
			<g id="g47263">
				<path id="path10730" sodipodi:nodetypes="ccsscccc" class="st0" d="M110.1,191c-29.9-16.8-65.7-25.5-65-45.4
					c-10-2.3-9.3-12.8-4.1-16.6c3.9-2.9,3.7-8.8,3.6-12.3c-0.1-8,14.9-12.7,19.4-4.4c1.8-13,7.5-22.9-8.7-50.8l15.9-15.9h44.7"/>
				<path id="path21678" sodipodi:nodetypes="ccsscccc" class="st0" d="M121.9,191c29.9-16.8,65.7-25.5,65-45.4
					c10-2.3,9.3-12.8,4.1-16.6c-3.9-2.9-3.7-8.8-3.6-12.3c0.1-8-14.9-12.7-19.4-4.4c-1.8-13-7.5-22.9,8.7-50.8l-15.9-15.9h-44.7"/>
			</g>
			<rect id="rect49113" x="80.5" y="46.3" class="st1" width="75" height="4.8"/>
		</g>
		<rect id="rect21908" x="107.3" y="20.7" class="st2" width="88.9" height="111.1"/>
		<g id="g45394" transform="translate(36,-25)">
			<path id="path14644" sodipodi:nodetypes="ccccc" class="st3" d="M116,51.1H72.8L61.9,62c7.1,14.7,13.7,29.7,6.4,52.8
				c-6.7,33.5,9.9,31.3,39.4,45"/>
			<path id="path21684" sodipodi:nodetypes="ccccc" class="st3" d="M116,51.1h43.2l10.9,11c-7.1,14.7-13.7,29.7-6.4,52.8
				c6.7,33.5-9.9,31.3-39.4,45"/>
		</g>
		<g id="g53312">
			<g id="g51274">
				<path id="path13434" sodipodi:nodetypes="ccccc" class="st3" d="M81.7,116.4c-3.8-1.6-5.3-5.4-1.4-10.8l5-7.7l5.5,2.7
					C87.8,106,82.3,110.4,81.7,116.4z"/>
				<path id="path16013" sodipodi:nodetypes="cccc" class="st3" d="M89.9,93.9l0.1,3l1.5,1.1C91.8,95.6,91.5,93.9,89.9,93.9z"/>
				<path id="path17124" sodipodi:nodetypes="cccccccc" class="st3" d="M145.8,161c-15-7.2-28.8-13.5-45.7-24.2
					c-6.4-4.6-21.9-13.5-11.3-27.8c3.1-4.2,9.9-14,3.4-17.7c-2.4-1.2-4,1.4-4.7,3.7c-1.9-2.3-1.6-10,6.3-6.7
					c3.2,1.8,4.7,6.2,3.5,11.3c-5.5,25.5,28.4,32.3,47,41.5"/>
				<path id="path21682" sodipodi:nodetypes="ccccc" class="st3" d="M222.3,116.4c3.8-1.6,5.3-5.4,1.4-10.8l-5-7.7l-5.5,2.7
					C216.2,106,221.7,110.4,222.3,116.4L222.3,116.4z"/>
				<path id="path21686" sodipodi:nodetypes="cccc" class="st3" d="M214.1,93.9l-0.1,3l-1.5,1.1C212.2,95.6,212.5,93.9,214.1,93.9z"
					/>
				<path id="path21688" sodipodi:nodetypes="cccccccc" class="st3" d="M158.2,161c15-7.2,28.8-13.5,45.7-24.2
					c6.4-4.6,21.9-13.5,11.3-27.8c-3.1-4.2-9.9-14-3.4-17.7c2.4-1.2,4,1.4,4.7,3.7c1.9-2.3,1.6-10-6.3-6.7
					c-3.2,1.8-4.7,6.2-3.5,11.3c5.5,25.5-28.4,32.3-47,41.5"/>
			</g>
			<ellipse id="path13319" class="st1" cx="96.9" cy="125.3" rx="3.4" ry="3.2"/>
			<ellipse id="ellipse21680" class="st1" cx="207.1" cy="125.3" rx="3.4" ry="3.2"/>
		</g>
		<rect id="rect49539" x="127.7" y="26" class="st3" width="44.6" height="97.5"/>
		<g id="g37628" transform="translate(36,-25)">
			
				<linearGradient id="path25776_1_" gradientUnits="userSpaceOnUse" x1="270.341" y1="1867.2806" x2="196.86" y2="1775.6653" gradientTransform="matrix(1 0 0 1 -122.6912 -1764)">
				<stop  offset="0" style="stop-color:#E40200"/>
				<stop  offset="1" style="stop-color:#DED700"/>
			</linearGradient>
			<path id="path25776" sodipodi:nodetypes="cccscsc" class="st4" d="M126.5,109.4c4-5.5,16.9-24.8-5.3-35.4
				c-28.8-13.9-12.5-28.8-3.3-40.3c-3.6,12.4-10.1,17.9-1.5,25.6c2.6,2.3,7.6,4.7,13.7,8.1c16.5,10,16.2,21.9,12.3,29.4
				C138.6,103.9,129.8,108.1,126.5,109.4z"/>
			
				<linearGradient id="path25776-2_1_" gradientUnits="userSpaceOnUse" x1="257.6161" y1="1877.4866" x2="184.1351" y2="1785.8712" gradientTransform="matrix(1 0 0 1 -122.6912 -1764)">
				<stop  offset="0" style="stop-color:#E40200"/>
				<stop  offset="1" style="stop-color:#DED700"/>
			</linearGradient>
			<path id="path25776-2" sodipodi:nodetypes="cccscsc" class="st5" d="M118.3,109.5c1.5-6.8,2.6-22-10.2-27.4
				c-21.1-10.2-13.9-23-7.7-28.4c-2,10.5,1.1,13.6,2.8,15.4c2.6,2.7,6.7,5.5,12.5,8.9c12.1,5.7,13.9,16.7,10.2,23.3
				C122.9,106.5,121.4,106.6,118.3,109.5z"/>
			
				<linearGradient id="path25776-4_1_" gradientUnits="userSpaceOnUse" x1="248.371" y1="1884.9016" x2="174.8899" y2="1793.2864" gradientTransform="matrix(1 0 0 1 -122.6912 -1764)">
				<stop  offset="0" style="stop-color:#E40200"/>
				<stop  offset="1" style="stop-color:#DED700"/>
			</linearGradient>
			<path id="path25776-4" sodipodi:nodetypes="ccscscssc" class="st6" d="M107.5,110c2.2-4.1,1.9-15.1-6.3-18.4
				c-9.2-3.4-14-9-14.2-12.9c-0.1-3.5,1.2-6.3,2.9-9.7c1.5,6,4.2,9.1,8.2,13.1c1.5,1.4,3.7,3.3,7.4,5.2c3.4,1.6,6.5,4.4,6.9,5.4
				c1,2.3,1.3,6.9,0.3,10.3C111.5,107.4,109.5,109.3,107.5,110z"/>
		</g>
		<g id="g50033" transform="translate(36,-25)">
			<path id="path2575" sodipodi:nodetypes="cccc" class="st7" d="M116,221.9c-3.9,0-8.3-4.1-4.2-10l-6-77.4
				c3.6,1.8,7.7,1.9,10.2,1.8"/>
			<path id="path5064" sodipodi:nodetypes="cccc" class="st7" d="M116,221.9c3.9,0,8.3-4.1,4.2-10l6-77.4c-3.6,1.8-7.7,1.9-10.2,1.8
				"/>
			<rect id="rect49727" x="114.4" y="137" class="st8" width="3.2" height="84"/>
		</g>
		<g id="g50020" transform="translate(36,-25)">
			<path id="path7890" sodipodi:nodetypes="cccc" class="st8" d="M116,113.2l-29-0.1l0.1,4.8l28.9-0.1"/>
			<path id="path10317" sodipodi:nodetypes="cccc" class="st8" d="M116,113.2l29-0.1l-0.1,4.8l-28.9-0.1"/>
			<rect id="rect49913" x="105.5" y="113.2" class="st8" width="22.5" height="4.6"/>
		</g>
		<rect id="rect50479" x="148.1" y="96.8" class="st2" width="3.2" height="10.1"/>
		<g id="g50890" transform="translate(36,-25)">
			<path id="path5783" sodipodi:nodetypes="ccc" class="st8" d="M116,132c-7.3,0.1-14.2-0.7-21-10.5l21-0.1"/>
			<path id="path6872" sodipodi:nodetypes="ccc" class="st8" d="M116,132c7.3,0.1,14.2-0.7,21-10.5l-21-0.1"/>
			<rect id="rect50725" x="114.6" y="121.4" class="st8" width="2.7" height="10.5"/>
		</g>
	</g>
</g>
<rect x="176.8" y="30.3" class="st2" width="309.2" height="152.4"/>
<text transform="matrix(1 0 0 1 176.7998 59.5238)" class="st9 st10 st11">ACADEMIA</text>
<text transform="matrix(1 0 0 1 176.7998 59.5238)" class="st12 st10 st11">ACADEMIA</text>
<text transform="matrix(1 0 0 1 176.7998 111.1238)" class="st9 st10 st11">INT’ COLLAGE</text>
<text transform="matrix(1 0 0 1 176.7998 111.1238)" class="st12 st10 st11">INT’ COLLAGE</text>
<text transform="matrix(1 0 0 1 176.7998 162.7238)" class="st9 st10 st11">LITE</text>
<text transform="matrix(1 0 0 1 176.7998 162.7238)" class="st12 st10 st11">LITE</text>
</svg>
